<svg width="100" height="100" viewBox="0 0 100 100" fill="none" xmlns="http://www.w3.org/2000/svg">
<rect width="100" height="100" fill="#376B9C"/>
<rect x="30" y="17" width="40" height="2" rx="1" fill="#D9D9D9"/>
<rect x="30" y="17" width="40" height="2" rx="1" fill="#D9D9D9"/>
<rect x="10" y="33" width="80" height="2" rx="1" fill="#D9D9D9"/>
<rect x="10" y="49" width="80" height="2" rx="1" fill="#D9D9D9"/>
<rect x="10" y="65" width="80" height="2" rx="1" fill="#D9D9D9"/>
<path d="M10 82C10 81.4477 10.4477 81 11 81H42V83H11C10.4477 83 10 82.5523 10 82Z" fill="#D9D9D9"/>
<path d="M58 81H89C89.5523 81 90 81.4477 90 82C90 82.5523 89.5523 83 89 83H58V81Z" fill="#D9D9D9"/>
</svg>
