<?xml version="1.0" standalone="no"?>
<!DOCTYPE svg PUBLIC "-//W3C//DTD SVG 20010904//EN"
 "http://www.w3.org/TR/2001/REC-SVG-20010904/DTD/svg10.dtd">
<svg version="1.0" xmlns="http://www.w3.org/2000/svg"
 width="700.000000pt" height="700.000000pt" viewBox="0 0 700.000000 700.000000"
 preserveAspectRatio="xMidYMid meet">
<metadata>
Created by potrace 1.14, written by Peter Selinger 2001-2017
</metadata>
<g transform="translate(0.000000,700.000000) scale(0.100000,-0.100000)"
fill="#000000" stroke="none">
<path d="M0 3500 l0 -3500 3500 0 3500 0 0 3500 0 3500 -3500 0 -3500 0 0
-3500z m4880 2290 c11 -11 20 -33 20 -50 0 -17 -9 -39 -20 -50 -20 -20 -33
-20 -1380 -20 -1347 0 -1360 0 -1380 20 -11 11 -20 33 -20 50 0 17 9 39 20 50
20 20 33 20 1380 20 1347 0 1360 0 1380 -20z m1397 -1122 c29 -27 29 -65 1
-95 l-21 -23 -2756 0 -2755 0 -23 22 c-29 27 -29 65 -1 95 l21 23 2756 0 2755
0 23 -22z m0 -1120 c29 -27 29 -65 1 -95 l-21 -23 -2756 0 -2755 0 -23 22
c-29 27 -29 65 -1 95 l21 23 2756 0 2755 0 23 -22z m0 -1120 c29 -27 29 -65 1
-95 l-21 -23 -2756 0 -2755 0 -23 22 c-29 27 -29 65 -1 95 l21 23 2756 0 2755
0 23 -22z m-3337 -1168 l0 -70 -1097 0 -1097 0 -23 22 c-29 27 -29 65 -1 95
l21 23 1099 0 1098 0 0 -70z m3337 48 c29 -27 29 -65 1 -95 l-21 -23 -1099 0
-1098 0 0 70 0 70 1097 0 1097 0 23 -22z"/>
</g>
</svg>
