<?xml version="1.0" standalone="no"?>
<!DOCTYPE svg PUBLIC "-//W3C//DTD SVG 20010904//EN"
 "http://www.w3.org/TR/2001/REC-SVG-20010904/DTD/svg10.dtd">
<svg version="1.0" xmlns="http://www.w3.org/2000/svg"
 width="700.000000pt" height="700.000000pt" viewBox="0 0 700.000000 700.000000"
 preserveAspectRatio="xMidYMid meet">
<metadata>
Created by potrace 1.14, written by Peter Selinger 2001-2017
</metadata>
<g transform="translate(0.000000,700.000000) scale(0.100000,-0.100000)"
fill="#000000" stroke="none">
<path d="M0 3500 l0 -3500 3500 0 3500 0 0 3500 0 3500 -3500 0 -3500 0 0
-3500z m4740 2496 c49 -26 108 -84 133 -131 31 -57 31 -193 0 -250 -25 -47
-84 -105 -133 -131 -34 -18 -84 -19 -1240 -19 l-1205 0 -40 22 c-48 25 -106
84 -131 133 -14 26 -19 57 -19 120 0 96 13 129 74 193 36 39 75 64 121 78 14
4 560 7 1215 6 1139 -2 1191 -3 1225 -21z m1370 -1112 c74 -22 152 -100 174
-174 34 -113 11 -206 -68 -286 -93 -92 180 -84 -2716 -84 -2896 0 -2623 -8
-2716 84 -79 80 -102 173 -68 286 21 71 100 152 170 174 43 13 363 15 2610 15
2307 1 2566 -1 2614 -15z m0 -1120 c74 -22 152 -100 174 -174 34 -113 11 -206
-68 -286 -93 -92 180 -84 -2716 -84 -2896 0 -2623 -8 -2716 84 -79 80 -102
173 -68 286 21 71 100 152 170 174 43 13 363 15 2610 15 2307 1 2566 -1 2614
-15z m0 -1120 c74 -22 152 -100 174 -174 34 -113 11 -206 -68 -286 -93 -92
180 -84 -2716 -84 -2896 0 -2623 -8 -2716 84 -79 80 -102 173 -68 286 21 71
100 152 170 174 43 13 363 15 2610 15 2307 1 2566 -1 2614 -15z m-3170 -1384
l0 -280 -998 0 c-1142 0 -1068 -5 -1158 84 -113 114 -113 278 0 392 89 88 12
83 1154 83 l1002 1 0 -280z m3170 264 c74 -22 152 -100 174 -174 34 -113 11
-206 -68 -286 -90 -89 -16 -84 -1158 -84 l-998 0 0 280 0 280 998 0 c882 0
1005 -2 1052 -16z"/>
</g>
</svg>
