<svg width="449" height="70" viewBox="0 0 449 70" fill="none" xmlns="http://www.w3.org/2000/svg">
<path d="M20.0639 70L0.836648 0.181816H3.15483L21.4276 66.5909H21.7003L39.4276 0.181816H42.4276L60.1548 66.5909H60.4276L78.7003 0.181816H81.0185L61.7912 70H58.7912L41.0639 3.59091H40.7912L23.0639 70H20.0639ZM83.7202 70H81.402L106.357 0.181816H109.357L134.311 70H131.993L107.993 2.90909H107.72L83.7202 70ZM91.6293 44.2273H124.084V46.4091H91.6293V44.2273ZM133.57 0.181816H136.297L159.615 34.4091H159.888L183.206 0.181816H185.933L160.842 36.8636V70H158.661V36.8636L133.57 0.181816ZM200.081 0.181816H201.99L230.49 66.7273H230.763L259.263 0.181816H261.172V70H258.99V7H258.717L231.717 70H229.536L202.536 7H202.263V70H200.081V0.181816ZM282.956 70V0.181816H320.183V2.36363H285.138V34H318.138V36.1818H285.138V67.8182H321.138V70H282.956ZM333.564 70H331.246L356.2 0.181816H359.2L384.155 70H381.837L357.837 2.90909H357.564L333.564 70ZM341.473 44.2273H373.928V46.4091H341.473V44.2273ZM416.447 70H398.175V0.181816H418.22C424.652 0.181816 430.152 1.56818 434.72 4.34091C439.311 7.09091 442.822 11.0455 445.254 16.2045C447.709 21.3636 448.925 27.5682 448.902 34.8182C448.879 42.25 447.584 48.5909 445.016 53.8409C442.47 59.0682 438.777 63.0682 433.936 65.8409C429.118 68.6136 423.288 70 416.447 70ZM400.357 67.8182H416.447C422.902 67.8182 428.391 66.5114 432.913 63.8977C437.436 61.2614 440.868 57.4773 443.209 52.5455C445.572 47.6136 446.743 41.7045 446.72 34.8182C446.697 28.0227 445.561 22.2045 443.311 17.3636C441.084 12.5227 437.857 8.81818 433.629 6.25C429.402 3.65909 424.266 2.36363 418.22 2.36363H400.357V67.8182Z" fill="white"/>
</svg>
